<svg width="375" height="411" viewBox="0 0 375 411" fill="none" xmlns="http://www.w3.org/2000/svg">
<path d="M93.0967 352.8C89.4509 346.135 94.2735 338 101.87 338H281.13C288.727 338 293.549 346.135 289.903 352.8L260.908 405.8C259.153 409.006 255.79 411 252.135 411H130.865C127.21 411 123.847 409.006 122.092 405.8L93.0967 352.8Z" fill="url(#paint0_linear_13_2192)" fill-opacity="0.4"/>
<path d="M115.848 332.882C113.071 326.29 117.911 319 125.063 319H258.937C266.089 319 270.929 326.29 268.152 332.882L245.827 385.882C244.265 389.589 240.634 392 236.611 392H147.389C143.366 392 139.735 389.589 138.173 385.882L115.848 332.882Z" fill="url(#paint1_linear_13_2192)" fill-opacity="0.7"/>
<circle cx="91" cy="288" r="4" fill="#C4C4C4" fill-opacity="0.4"/>
<circle cx="334" cy="296" r="4" fill="#C4C4C4" fill-opacity="0.4"/>
<circle cx="334" cy="151" r="4" fill="#C4C4C4" fill-opacity="0.4"/>
<circle cx="294.5" cy="206.5" r="3.5" fill="#C4C4C4" fill-opacity="0.4"/>
<circle cx="133.5" cy="120.5" r="3.5" fill="#C4C4C4" fill-opacity="0.4"/>
<ellipse cx="267.5" cy="267" rx="3.5" ry="4" fill="#C4C4C4" fill-opacity="0.4"/>
<ellipse cx="213" cy="180.5" rx="4" ry="3.5" fill="#C4C4C4" fill-opacity="0.4"/>
<ellipse cx="39" cy="120.5" rx="4" ry="3.5" fill="#C4C4C4" fill-opacity="0.4"/>
<circle cx="162" cy="247" r="4" fill="#C4C4C4" fill-opacity="0.4"/>
<circle cx="83" cy="181" r="4" fill="#C4C4C4" fill-opacity="0.4"/>
<g filter="url(#filter0_d_13_2192)">
<rect width="64.2782" height="63.216" rx="15" transform="matrix(0.928506 0.371317 -0.386485 0.922296 258.02 158)" fill="white"/>
</g>
<g filter="url(#filter1_d_13_2192)">
<rect width="64.4786" height="63.0115" rx="15" transform="matrix(0.996347 -0.085392 0.0894466 0.995992 143.507 76.506)" fill="white"/>
</g>
<g filter="url(#filter2_d_13_2192)">
<rect width="64.3178" height="63.1757" rx="15" transform="matrix(0.94236 -0.3346 0.348705 0.937233 68.494 221.241)" fill="white"/>
</g>
<g clip-path="url(#clip0_13_2192)">
<path d="M292.335 192.253L269.598 183.161L260.291 205.372L283.027 214.464L292.335 192.253Z" stroke="#167BD8" stroke-width="2.66667" stroke-linecap="round" stroke-linejoin="round"/>
<path d="M263.911 196.734L271.031 193.819L279.238 212.949" stroke="#167BD8" stroke-width="2.66667" stroke-linecap="round" stroke-linejoin="round"/>
<path d="M275.881 205.123L289.232 199.657" stroke="#167BD8" stroke-width="2.66667" stroke-linecap="round" stroke-linejoin="round"/>
</g>
<path d="M190.075 91.5878L165.601 93.6853L167.748 117.593L192.222 115.496L190.075 91.5878Z" stroke="#167BD8" stroke-width="2.66667" stroke-linecap="round" stroke-linejoin="round"/>
<path d="M166.913 108.296L171.875 102.517L188.143 115.846" stroke="#167BD8" stroke-width="2.66667" stroke-linecap="round" stroke-linejoin="round"/>
<path d="M181.488 110.393L190.79 99.5572" stroke="#167BD8" stroke-width="2.66667" stroke-linecap="round" stroke-linejoin="round"/>
<g clip-path="url(#clip1_13_2192)">
<path d="M117.469 224.068L94.3794 232.266L102.772 254.822L125.861 246.624L117.469 224.068Z" stroke="#167BD8" stroke-width="2.66667" stroke-linecap="round" stroke-linejoin="round"/>
<path d="M99.5079 246.05L102.774 239.216L122.013 247.99" stroke="#167BD8" stroke-width="2.66667" stroke-linecap="round" stroke-linejoin="round"/>
<path d="M114.142 244.401L120.266 231.586" stroke="#167BD8" stroke-width="2.66667" stroke-linecap="round" stroke-linejoin="round"/>
</g>
<defs>
<filter id="filter0_d_13_2192" x="163.223" y="87.4867" width="224.845" height="223.198" filterUnits="userSpaceOnUse" color-interpolation-filters="sRGB">
<feFlood flood-opacity="0" result="BackgroundImageFix"/>
<feColorMatrix in="SourceAlpha" type="matrix" values="0 0 0 0 0 0 0 0 0 0 0 0 0 0 0 0 0 0 127 0" result="hardAlpha"/>
<feOffset/>
<feGaussianBlur stdDeviation="37.5"/>
<feColorMatrix type="matrix" values="0 0 0 0 0.608333 0 0 0 0 0.608333 0 0 0 0 0.608333 0 0 0 0.15 0"/>
<feBlend mode="normal" in2="BackgroundImageFix" result="effect1_dropShadow_13_2192"/>
<feBlend mode="normal" in="SourceGraphic" in2="effect1_dropShadow_13_2192" result="shape"/>
</filter>
<filter id="filter1_d_13_2192" x="69.7874" y="-2.77478" width="217.318" height="215.815" filterUnits="userSpaceOnUse" color-interpolation-filters="sRGB">
<feFlood flood-opacity="0" result="BackgroundImageFix"/>
<feColorMatrix in="SourceAlpha" type="matrix" values="0 0 0 0 0 0 0 0 0 0 0 0 0 0 0 0 0 0 127 0" result="hardAlpha"/>
<feOffset/>
<feGaussianBlur stdDeviation="37.5"/>
<feColorMatrix type="matrix" values="0 0 0 0 0.608333 0 0 0 0 0.608333 0 0 0 0 0.608333 0 0 0 0.15 0"/>
<feBlend mode="normal" in2="BackgroundImageFix" result="effect1_dropShadow_13_2192"/>
<feBlend mode="normal" in="SourceGraphic" in2="effect1_dropShadow_13_2192" result="shape"/>
</filter>
<filter id="filter2_d_13_2192" x="-2.21619" y="128.866" width="224.061" height="222.439" filterUnits="userSpaceOnUse" color-interpolation-filters="sRGB">
<feFlood flood-opacity="0" result="BackgroundImageFix"/>
<feColorMatrix in="SourceAlpha" type="matrix" values="0 0 0 0 0 0 0 0 0 0 0 0 0 0 0 0 0 0 127 0" result="hardAlpha"/>
<feOffset/>
<feGaussianBlur stdDeviation="37.5"/>
<feColorMatrix type="matrix" values="0 0 0 0 0.608333 0 0 0 0 0.608333 0 0 0 0 0.608333 0 0 0 0.15 0"/>
<feBlend mode="normal" in2="BackgroundImageFix" result="effect1_dropShadow_13_2192"/>
<feBlend mode="normal" in="SourceGraphic" in2="effect1_dropShadow_13_2192" result="shape"/>
</filter>
<linearGradient id="paint0_linear_13_2192" x1="191.5" y1="326.246" x2="191.5" y2="411" gradientUnits="userSpaceOnUse">
<stop stop-color="#E6E6E6"/>
<stop offset="1" stop-color="#E1E1E1" stop-opacity="0"/>
</linearGradient>
<linearGradient id="paint1_linear_13_2192" x1="192" y1="307.246" x2="192" y2="392" gradientUnits="userSpaceOnUse">
<stop stop-color="#E6E6E6"/>
<stop offset="1" stop-color="#E1E1E1" stop-opacity="0"/>
</linearGradient>
<clipPath id="clip0_13_2192">
<rect width="32.6492" height="32.1097" fill="white" transform="matrix(0.928506 0.371317 -0.386485 0.922296 267.36 177.943)"/>
</clipPath>
<clipPath id="clip1_13_2192">
<rect width="32.6694" height="32.0892" fill="white" transform="matrix(0.94236 -0.3346 0.348705 0.937233 89.1323 229.873)"/>
</clipPath>
</defs>
</svg>
