<svg width="316" height="316" viewBox="0 0 316 316" fill="none" xmlns="http://www.w3.org/2000/svg">
<circle cx="297" cy="225" r="4" fill="#C4C4C4" fill-opacity="0.4"/>
<circle cx="209" cy="272" r="4" fill="#C4C4C4" fill-opacity="0.4"/>
<circle cx="168" cy="203" r="4" fill="#C4C4C4" fill-opacity="0.4"/>
<circle cx="102" cy="264" r="4" fill="#C4C4C4" fill-opacity="0.4"/>
<circle cx="297" cy="80" r="4" fill="#C4C4C4" fill-opacity="0.4"/>
<circle cx="258.5" cy="135.5" r="3.5" fill="#C4C4C4" fill-opacity="0.4"/>
<circle cx="101.5" cy="49.5" r="3.5" fill="#C4C4C4" fill-opacity="0.4"/>
<ellipse cx="183" cy="102.5" rx="4" ry="3.5" fill="#C4C4C4" fill-opacity="0.4"/>
<ellipse cx="52" cy="203.5" rx="4" ry="3.5" fill="#C4C4C4" fill-opacity="0.4"/>
<ellipse cx="9" cy="49.5" rx="4" ry="3.5" fill="#C4C4C4" fill-opacity="0.4"/>
<circle cx="52" cy="110" r="4" fill="#C4C4C4" fill-opacity="0.4"/>
<g filter="url(#filter0_d_13_2194)">
<path d="M195.926 221H120.074C106.214 221 95 209.786 95 195.926V120.074C95 106.214 106.214 95 120.074 95H195.926C209.786 95 221 106.214 221 120.074V195.926C221 209.786 209.786 221 195.926 221Z" fill="white"/>
</g>
<path fill-rule="evenodd" clip-rule="evenodd" d="M128.507 144.244H135.107C142.877 144.244 150.49 142.079 157.072 137.997C163.654 133.915 171.267 131.75 179.037 131.75H187.014C190.829 131.75 193.921 134.807 193.921 138.578V177.468C193.921 181.976 190.224 185.632 185.663 185.632H130.337C125.776 185.632 122.079 181.976 122.079 177.468V150.599C122.079 147.089 124.957 144.244 128.507 144.244ZM166.769 171.834C168.505 172.324 170.264 172.569 172.045 172.569C175.314 172.569 177.851 171.893 179.655 170.539C181.458 169.162 182.36 167.26 182.36 164.833C182.36 163.573 182.101 162.488 181.582 161.578C181.064 160.668 180.185 159.875 178.945 159.198C177.704 158.498 176.002 157.903 173.838 157.413C172.507 157.133 171.504 156.864 170.828 156.607C170.151 156.327 169.689 156.047 169.441 155.767C169.193 155.487 169.069 155.126 169.069 154.682C169.069 153.936 169.419 153.34 170.117 152.897C170.816 152.43 171.741 152.197 172.891 152.197C175.281 152.197 177.558 152.967 179.722 154.507L181.616 149.957C180.714 149.163 179.452 148.522 177.828 148.031C176.228 147.518 174.57 147.261 172.857 147.261C170.918 147.261 169.193 147.611 167.682 148.312C166.194 148.988 165.033 149.933 164.199 151.147C163.387 152.337 162.981 153.69 162.981 155.207C162.981 156.537 163.229 157.658 163.726 158.568C164.244 159.478 165.135 160.271 166.397 160.948C167.66 161.625 169.407 162.208 171.639 162.698C173.443 163.095 174.661 163.492 175.292 163.888C175.946 164.285 176.273 164.798 176.273 165.429C176.273 166.129 175.912 166.677 175.19 167.074C174.492 167.447 173.466 167.634 172.113 167.634C170.783 167.634 169.464 167.435 168.156 167.039C166.848 166.642 165.619 166.07 164.47 165.324L162.542 169.874C163.624 170.691 165.033 171.344 166.769 171.834Z" fill="#167BD8"/>
<defs>
<filter id="filter0_d_13_2194" x="0.263161" y="0.263161" width="315.474" height="315.474" filterUnits="userSpaceOnUse" color-interpolation-filters="sRGB">
<feFlood flood-opacity="0" result="BackgroundImageFix"/>
<feColorMatrix in="SourceAlpha" type="matrix" values="0 0 0 0 0 0 0 0 0 0 0 0 0 0 0 0 0 0 127 0" result="hardAlpha"/>
<feOffset/>
<feGaussianBlur stdDeviation="47.3684"/>
<feColorMatrix type="matrix" values="0 0 0 0 0.608333 0 0 0 0 0.608333 0 0 0 0 0.608333 0 0 0 0.15 0"/>
<feBlend mode="normal" in2="BackgroundImageFix" result="effect1_dropShadow_13_2194"/>
<feBlend mode="normal" in="SourceGraphic" in2="effect1_dropShadow_13_2194" result="shape"/>
</filter>
</defs>
</svg>
