<svg width="80" height="80" viewBox="0 0 80 80" fill="none" xmlns="http://www.w3.org/2000/svg">
<path fill-rule="evenodd" clip-rule="evenodd" d="M11.5367 26.7246H17.9062C25.405 26.7246 32.752 24.6351 39.1045 20.6956C45.4571 16.7562 52.8041 14.6667 60.3029 14.6667H68.0013C71.6825 14.6667 74.6667 17.6169 74.6667 21.2563V58.7879C74.6667 63.1392 71.0987 66.6667 66.6973 66.6667H13.3027C8.90134 66.6667 5.33334 63.1392 5.33334 58.7879V32.8575C5.33334 29.4704 8.1107 26.7246 11.5367 26.7246ZM48.463 53.3512C50.1385 53.8241 51.8357 54.0606 53.5547 54.0606C56.7098 54.0606 59.1577 53.4075 60.8985 52.1013C62.6392 50.7725 63.5096 48.937 63.5096 46.5948C63.5096 45.3787 63.2594 44.3315 62.7589 43.4531C62.2584 42.5748 61.4098 41.8091 60.2131 41.156C59.0163 40.4803 57.3735 39.906 55.2846 39.4331C54.0008 39.1628 53.0325 38.9038 52.3797 38.6561C51.7269 38.3859 51.2809 38.1156 51.0415 37.8454C50.8021 37.5751 50.6825 37.226 50.6825 36.7981C50.6825 36.0774 51.0197 35.5031 51.6943 35.0752C52.3688 34.6248 53.261 34.3996 54.3707 34.3996C56.6772 34.3996 58.8749 35.1428 60.9637 36.6292L62.7915 32.2376C61.9212 31.4719 60.7026 30.8525 59.136 30.3796C57.5911 29.8841 55.9917 29.6364 54.338 29.6364C52.4667 29.6364 50.8021 29.9742 49.3443 30.6498C47.9082 31.3029 46.7876 32.215 45.9825 33.3862C45.1991 34.5347 44.8075 35.841 44.8075 37.3048C44.8075 38.5886 45.0468 39.6696 45.5255 40.5479C46.026 41.4262 46.8855 42.1919 48.104 42.8451C49.3225 43.4982 51.0089 44.0612 53.163 44.5341C54.9038 44.917 56.0788 45.2999 56.688 45.6827C57.3191 46.0656 57.6346 46.5611 57.6346 47.1691C57.6346 47.8448 57.2864 48.374 56.5901 48.7569C55.9156 49.1172 54.9255 49.2974 53.62 49.2974C52.3362 49.2974 51.0633 49.106 49.8012 48.7231C48.5392 48.3402 47.3533 47.7885 46.2436 47.0678L44.3832 51.4594C45.4276 52.2477 46.7876 52.8783 48.463 53.3512Z" fill="#167BD8"/>
</svg>
