<svg width="76" height="76" viewBox="0 0 76 76" fill="none" xmlns="http://www.w3.org/2000/svg">
<path d="M60.876 76H15.124C6.764 76 0 69.236 0 60.876V15.124C0 6.764 6.764 0 15.124 0H60.876C69.236 0 76 6.764 76 15.124V60.876C76 69.236 69.236 76 60.876 76Z" fill="white"/>
<path fill-rule="evenodd" clip-rule="evenodd" d="M20.2105 29.7029H24.1914C28.8781 29.7029 33.47 28.3969 37.4404 25.9348C41.4107 23.4726 46.0026 22.1667 50.6893 22.1667H55.5008C57.8016 22.1667 59.6667 24.0106 59.6667 26.2852V49.7424C59.6667 52.462 57.4367 54.6667 54.6858 54.6667H21.3142C18.5633 54.6667 16.3333 52.462 16.3333 49.7424V33.536C16.3333 31.419 18.0692 29.7029 20.2105 29.7029ZM43.2894 46.3445C44.3366 46.6401 45.3973 46.7879 46.4717 46.7879C48.4436 46.7879 49.9736 46.3797 51.0616 45.5633C52.1495 44.7328 52.6935 43.5856 52.6935 42.1218C52.6935 41.3617 52.5371 40.7072 52.2243 40.1582C51.9115 39.6092 51.3811 39.1307 50.6332 38.7225C49.8852 38.3002 48.8584 37.9413 47.5529 37.6457C46.7505 37.4768 46.1453 37.3149 45.7373 37.1601C45.3293 36.9912 45.0505 36.8222 44.9009 36.6533C44.7514 36.4844 44.6766 36.2663 44.6766 35.9988C44.6766 35.5484 44.8873 35.1895 45.3089 34.922C45.7305 34.6405 46.2881 34.4997 46.9817 34.4997C48.4232 34.4997 49.7968 34.9642 51.1024 35.8932L52.2447 33.1485C51.7007 32.6699 50.9392 32.2828 49.96 31.9872C48.9944 31.6776 47.9949 31.5227 46.9613 31.5227C45.7917 31.5227 44.7514 31.7339 43.8402 32.1561C42.9426 32.5643 42.2422 33.1344 41.739 33.8663C41.2495 34.5842 41.0047 35.4006 41.0047 36.3155C41.0047 37.1178 41.1543 37.7935 41.4535 38.3424C41.7662 38.8914 42.3034 39.37 43.065 39.7782C43.8266 40.1863 44.8805 40.5382 46.2269 40.8338C47.3149 41.0731 48.0492 41.3124 48.43 41.5517C48.8244 41.791 49.0216 42.1007 49.0216 42.4807C49.0216 42.903 48.804 43.2338 48.3688 43.473C47.9473 43.6982 47.3285 43.8109 46.5125 43.8109C45.7101 43.8109 44.9145 43.6912 44.1258 43.4519C43.337 43.2126 42.5958 42.8678 41.9022 42.4174L40.7395 45.1621C41.3923 45.6548 42.2422 46.0489 43.2894 46.3445Z" fill="#167BD8"/>
</svg>
