<svg width="325" height="134" viewBox="0 0 325 134" fill="none" xmlns="http://www.w3.org/2000/svg">
<path fill-rule="evenodd" clip-rule="evenodd" d="M121.497 8.08883C117.725 3.00053 111.765 0 105.431 0H20C8.9543 0 0 8.95431 0 20V29V114C0 125.046 8.9543 134 20 134H305C316.046 134 325 125.046 325 114V49C325 37.9543 316.046 29 305 29H147.069C140.735 29 134.775 25.9995 131.003 20.9112L121.497 8.08883Z" fill="#167BD8"/>
<mask id="mask0_6_1466" style="mask-type:alpha" maskUnits="userSpaceOnUse" x="0" y="0" width="325" height="134">
<path fill-rule="evenodd" clip-rule="evenodd" d="M121.497 8.08883C117.725 3.00053 111.765 0 105.431 0H20C8.9543 0 0 8.95431 0 20V29V114C0 125.046 8.9543 134 20 134H305C316.046 134 325 125.046 325 114V49C325 37.9543 316.046 29 305 29H147.069C140.735 29 134.775 25.9995 131.003 20.9112L121.497 8.08883Z" fill="#167BD8"/>
</mask>
<g mask="url(#mask0_6_1466)">
<path d="M-59.6196 113C-59.2863 93.5 -72.1201 62.8542 -25.6196 48C10.3804 36.5001 62.3804 -1 72.3804 -33" stroke="white" stroke-opacity="0.1" stroke-width="3"/>
<path d="M-35.6196 113C-35.2863 93.5 -48.1201 62.8542 -1.61961 48C34.3804 36.5001 86.3804 -1 96.3804 -33" stroke="white" stroke-opacity="0.1" stroke-width="3"/>
<path d="M272.38 157C272.714 137.5 259.88 106.854 306.38 92C342.38 80.5001 394.38 43 404.38 11" stroke="white" stroke-opacity="0.1" stroke-width="3"/>
<path d="M284.38 164C284.714 144.5 271.88 113.854 318.38 99C354.38 87.5001 406.38 50 416.38 18" stroke="white" stroke-opacity="0.1" stroke-width="3"/>
</g>
</svg>
